<?xml version="1.0" encoding="UTF-8"?><svg id="Capa_1" xmlns="http://www.w3.org/2000/svg" viewBox="0 0 439 160"><g><path d="M92.53,4.96L39.26,58.79c-4.5,4.5-4.5,11.85,0,16.35l46.18,46.18c4.5,4.5,11.85,4.5,16.35,0l53.27-53.83c4.5-4.5,4.5-11.85,0-16.35L108.87,4.96c-4.5-4.5-11.85-4.5-16.35,0Z" style="fill:#c1222d;"/><path d="M52.55,45.06L92.91,4.28c3.72-3.72,9.43-4.31,13.79-1.78l33.21,33.21c4.43,4.43,4.43,11.69,0,16.12l-16.03,16.19L52.55,45.06Z" style="fill:#61a1d6;"/><path d="M66.52,155.05l53.27-53.83c4.5-4.5,4.5-11.85,0-16.35l-46.18-46.18c-4.5-4.5-11.85-4.5-16.35,0L3.99,92.52c-4.5,4.5-4.5,11.85,0,16.35l46.18,46.18c4.5,4.5,11.85,4.5,16.35,0Z" style="fill:#6ea953;"/><path d="M106.49,114.94l-40.36,40.78c-3.72,3.72-9.43,4.31-13.79,1.78L19.14,124.3c-4.43-4.43-4.43-11.69,0-16.12l16.03-16.19,71.33,22.96Z" style="fill:#da9032;"/></g><g><path d="M346.56,78.54c-5.83,1.18-9.93,5.62-11.11,12.09,2.19-.19,4.29-.37,6.38-.56,6.69-.59,13.38-1.21,20.08-1.75,.93-.08,.98-.28,.71-1.1-2.08-6.32-9.04-10.1-16.06-8.68Z" style="fill:none;"/><path d="M203.26,88.25c-.37-1.63-1.02-3.06-1.98-4.35-3.04-4.05-7.16-5.69-12.15-5.61-6.35,.1-12.07,5.11-13.24,11.68-.08,.48-.02,.66,.5,.6,.95-.11,1.9-.17,2.85-.26,7.99-.69,15.98-1.37,24.02-2.06Z" style="fill:none;"/><path d="M263.91,74.18c0-1.32-.04-2.48,.01-3.63,.05-.91-.2-1.29-1.2-1.25-2.16,.08-4.32,.02-6.48,.02q-1.57,0-1.57,1.55c0,21.11,0,42.23,0,63.34,0,3.48,.04,6.96-.02,10.44-.02,1.03,.33,1.29,1.3,1.26,2.16-.07,4.32-.08,6.48,0,1.13,.04,1.51-.28,1.51-1.46-.04-10.28-.03-20.55-.03-30.83v-1.35c12.73,9.43,27.48,4.17,33.8-4.04,6.91-8.97,7.14-22.31-1.32-31.48-7.37-7.99-21.5-10.97-32.48-2.56Zm14.82,33.9c-7.58,.27-15.06-6.53-14.86-15.27,.18-7.82,7.14-14.89,15.63-14.54,7.66,.32,14.37,7.12,14.28,15.08-.09,8.22-6.75,14.74-15.06,14.74Z" style="fill:#1d2a38;"/><path d="M364.34,74.76c-7.21-6.39-18.18-7.55-26.52-2.57-9.38,5.61-13.36,15.71-11.14,26.33,2.6,12.47,15.2,20.76,27.75,18.37,6.74-1.28,12.07-4.75,15.92-10.47,.6-.88,.58-1.4-.44-1.95-1.93-1.03-3.8-2.17-5.68-3.3-.71-.42-1.19-.38-1.7,.35-3.24,4.62-7.72,6.84-13.33,6.51-5.64-.33-9.64-3.31-12.39-8.16,.62-.42,1.23-.28,1.82-.33,10.46-.91,20.92-1.83,31.39-2.75,2.61-.23,2.57-.22,2.62-2.88,.17-7.67-2.53-14.05-8.3-19.16Zm-2.43,13.56c-6.7,.55-13.39,1.16-20.08,1.75-2.09,.19-4.19,.36-6.38,.56,1.18-6.47,5.28-10.91,11.11-12.09,7.02-1.43,13.98,2.36,16.06,8.68,.27,.83,.22,1.03-.71,1.1Z" style="fill:#1d2a38;"/><path d="M210.73,106.36c.58-.86,.51-1.34-.45-1.85-1.89-1.02-3.74-2.13-5.56-3.26-.87-.54-1.35-.4-1.94,.45-6.29,9.02-19.73,8.39-25.23-1.12-.46-.79-.19-.95,.53-1.01,1.9-.16,3.8-.33,5.71-.49,8.64-.73,17.28-1.44,25.91-2.2,3.22-.28,3.21-.34,3.21-3.63,.24-7.62-2.78-13.83-8.48-18.7-9.74-8.33-24.45-6.89-32.59,3.01-7.71,9.37-7.86,25.42,3.78,34.6,5.35,4.22,11.46,5.84,18.15,4.9,7.2-1.01,12.87-4.61,16.95-10.68Zm-34.84-16.39c1.16-6.56,6.89-11.57,13.24-11.68,4.99-.08,9.11,1.56,12.15,5.61,.96,1.28,1.61,2.72,1.98,4.35-8.04,.69-16.03,1.38-24.02,2.06-.95,.08-1.9,.15-2.85,.26-.52,.06-.59-.12-.5-.6Z" style="fill:#1d2a38;"/><path d="M236.35,93.96c-.46-.62-.47-.98,0-1.6,5.38-7.17,10.71-14.36,16.07-21.55,.32-.43,.64-.85,.37-1.4-.26-.5-.77-.33-1.19-.33-2.76-.01-5.52,.04-8.28-.03-1-.03-1.6,.32-2.17,1.1-3.7,5.03-7.44,10.03-11.21,15.09-.2-.23-.37-.39-.51-.58-3.69-4.95-7.38-9.89-11.07-14.84-.26-.35-.43-.75-.98-.75-3.2,.02-6.4,0-9.6,.01-.85,0-1.01,.52-.72,1.21,.12,.29,.36,.53,.55,.78,5.18,6.97,10.35,13.95,15.57,20.88,.7,.93,.68,1.5-.01,2.42-5.28,7-10.49,14.04-15.72,21.08-.31,.41-.73,.8-.45,1.38,.29,.59,.86,.48,1.37,.48,2.76,0,5.52-.03,8.28,.02,.85,.01,1.39-.28,1.89-.96,3.54-4.81,7.14-9.58,10.66-14.4,.67-.91,.91-.7,1.45,.05,3.48,4.75,7.01,9.46,10.51,14.2,.56,.76,1.17,1.15,2.19,1.12,2.68-.08,5.36-.02,8.04-.03,.51,0,1.12,.15,1.42-.39,.32-.59-.13-1.05-.46-1.5-5.32-7.16-10.63-14.32-15.98-21.46Z" style="fill:#1d2a38;"/><path d="M434.8,95.47c-2.43-3.07-5.72-4.86-9.17-6.48-2.7-1.26-5.54-2.24-8.04-3.91-1.47-.98-2.37-2.25-1.97-4.1,.41-1.9,1.8-2.7,3.58-3.03,3.5-.65,6.75-.1,9.64,2.06,.6,.45,1.04,.41,1.56-.11,1.3-1.3,2.65-2.55,3.96-3.83,1.28-1.25,1.28-1.47-.15-2.54-3.71-2.79-7.88-4.26-12.55-4.25-.99,.06-1.99,.07-2.98,.2-.9,.12-1.8,.33-2.68,.57-8.97,2.42-11.05,12.39-7.13,18.34,2.16,3.28,5.47,5.01,8.86,6.63,2.94,1.41,6.04,2.51,8.69,4.47,1.62,1.2,2.39,2.76,1.98,4.77-.39,1.93-1.68,3.04-3.53,3.5-4.29,1.07-8.3,.48-11.89-2.18-.8-.59-1.27-.52-1.93,.13-1.42,1.41-2.9,2.75-4.34,4.13-1.34,1.28-1.35,1.55,.12,2.64,6.73,5,14.13,6.2,22,3.39,9.52-3.39,10.41-14.78,5.97-20.38Z" style="fill:#1d2a38;"/><path d="M392.03,88.5c-2.56-1.17-5.28-2.05-7.53-3.85-1.27-1.02-1.64-2.28-1.33-3.82,.3-1.47,1.29-2.27,2.64-2.63,3.65-.98,7.11-.6,10.23,1.65,.85,.61,1.42,.56,2.13-.21,1.14-1.23,2.4-2.35,3.59-3.53,1.32-1.3,1.3-1.6-.25-2.72-3.69-2.67-7.78-4.13-12.7-4.07-1.79-.04-3.87,.25-5.91,.9-8.49,2.7-10.39,12.33-6.54,18.16,2.07,3.14,5.19,4.85,8.42,6.43,3.07,1.51,6.33,2.62,9.11,4.69,1.63,1.21,2.36,2.75,1.98,4.75-.34,1.85-1.56,2.96-3.29,3.43-4.31,1.17-8.37,.62-12.02-2.05-.85-.62-1.38-.61-2.12,.16-1.44,1.49-3,2.87-4.5,4.3-.99,.94-.97,1.34,.09,2.19,4.92,3.92,10.57,5.42,16.76,4.91,3.89-.33,7.52-1.51,10.36-4.34,4.72-4.7,5.1-13.68,.04-18.63-2.64-2.59-5.86-4.19-9.17-5.7Z" style="fill:#1d2a38;"/><path d="M327.44,77.59c.44-2.31,.91-4.61,1.43-6.9,.17-.76-.12-1.04-.8-1.13-1.54-.22-3.08-.31-4.64-.18-3.03,.26-5.83,1.18-8.63,2.84,0-.8-.05-1.41,.01-2,.1-.94-.24-1.3-1.2-1.28-2.32,.04-4.64,.04-6.96,0-.83-.01-1.11,.27-1.1,1.11,.02,15.36,.02,30.71,0,46.07,0,.88,.31,1.22,1.19,1.2,2.2-.03,4.4-.07,6.6,.01,1.18,.04,1.49-.37,1.48-1.52-.04-9-.02-17.99-.02-26.99,0-6.21,5.13-10.92,11.32-10.34,.8,.08,1.17-.08,1.33-.89Z" style="fill:#1d2a38;"/></g><g><path d="M197.84,49.83h6.88c-1.13-2.73-2.23-5.38-3.44-8.3-1.23,2.96-2.32,5.6-3.44,8.3Z" style="fill:none;"/><path d="M269.3,43.74c-.14-2.01-1.92-3.88-3.85-3.93-2.28-.06-4.56,0-6.84-.03-.6,0-.73,.21-.72,.76,.04,1.16,.01,2.32,.01,3.48,0,1.28,0,2.56,0,3.84,0,.38-.02,.71,.53,.7,2.43-.07,4.88,.2,7.3-.14,2.2-.31,3.72-2.41,3.56-4.67Z" style="fill:none;"/><path d="M287.36,36.07c-7.48-.36-14.02,6.37-14.28,13.66-.27,7.5,5.68,14.86,14.32,14.9,7.88,.04,14.32-6.44,14.32-14.41,0-8.3-7.21-14.58-14.36-14.16Zm-.04,24.72c-5.85,0-10.46-4.69-10.45-10.61,.01-5.81,4.78-10.38,10.79-10.39,5.18-.01,10.34,4.54,10.29,10.58-.05,5.89-4.74,10.43-10.63,10.43Z" style="fill:#1d2a38;"/><path d="M267.4,53.12c-.55-.96-.33-1.17,.57-1.53,3.57-1.4,5.52-4.82,5.06-8.7-.41-3.45-3.38-6.42-7.03-6.79-3.54-.37-7.11-.03-10.66-.16-1.02-.04-1.17,.35-1.16,1.23,.04,4.36,.02,8.72,.02,13.08,0,3.88,0,7.76,0,11.64,0,2.67,0,2.63,2.66,2.66,.83,0,1.08-.21,1.07-1.06-.05-3.44,0-6.88-.03-10.32,0-.63,.09-.94,.82-.9,1.08,.07,2.16,.05,3.24,0,.57-.02,.84,.2,1.09,.69,1.64,3.05,3.32,6.08,4.97,9.13,1.4,2.59,1.39,2.6,4.33,2.56,1.28-.02,1.33-.1,.69-1.27-1.87-3.43-3.69-6.88-5.65-10.25Zm-8.96-4.56c-.55,.02-.53-.32-.53-.7,0-1.28,0-2.56,0-3.84,0-1.16,.02-2.32-.01-3.48-.02-.55,.11-.77,.72-.76,2.28,.03,4.56-.03,6.84,.03,1.93,.05,3.7,1.92,3.85,3.93,.16,2.26-1.36,4.36-3.56,4.67-2.42,.34-4.87,.07-7.3,.14Z" style="fill:#1d2a38;"/><path d="M251.7,60.9c-4.44,.04-8.87,0-13.31,.03-.72,0-1.05-.09-1.02-.95,.07-2.28,.05-4.56,0-6.83-.02-.79,.23-1.02,1.01-1.01,2.48,.04,4.96,.02,7.43,.02,2.78,0,2.75,0,2.75-2.82,0-.74-.19-.93-.93-.92-3.12,.04-6.24,0-9.35,.04-.75,.01-.93-.2-.92-.93,.05-2.28,.05-4.56,0-6.83-.02-.77,.24-.92,.95-.91,3.92,.03,7.83,.02,11.75,.02,2.71,0,2.68,0,2.7-2.66,0-.82-.2-1.09-1.06-1.08-5.68,.04-11.35,.04-17.03,0-.86,0-1.05,.26-1.04,1.07,.04,4.4,.02,8.79,.02,13.19,0,4.32,.03,8.63-.03,12.95-.01,1.07,.22,1.42,1.36,1.4,5.04-.07,10.07-.03,15.11-.03,2.68,0,2.65,0,2.67-2.71,0-.86-.26-1.05-1.08-1.04Z" style="fill:#1d2a38;"/><path d="M213.79,62.23c-3.53-8.52-7.07-17.04-10.59-25.56-.22-.53-.48-.76-1.05-.72-.48,.04-.97,.07-1.44,0-.83-.12-1.15,.27-1.45,1-3.45,8.38-6.96,16.73-10.43,25.1-1.08,2.59-1.05,2.57,1.72,2.62,.85,.02,1.26-.25,1.58-1.04,1.24-3.14,2.57-6.25,3.84-9.39,.22-.53,.46-.79,1.11-.78,2.8,.04,5.59,.04,8.39,0,.61,0,.89,.18,1.12,.77,1.18,2.95,2.46,5.86,3.61,8.83,.46,1.2,1.03,1.96,2.24,1.59q2.4,0,1.54-1.97c-.06-.15-.12-.29-.18-.44Zm-15.94-12.4c1.12-2.69,2.21-5.34,3.44-8.3,1.21,2.92,2.31,5.56,3.44,8.3h-6.88Z" style="fill:#1d2a38;"/><path d="M183.75,40.44c.75,.31,1.44,1.27,2.2,.86,.66-.35,.96-1.33,1.49-1.97,.58-.7,.32-1.05-.37-1.44-2.46-1.36-5.06-1.91-7.88-1.86-7.31,.14-13.8,6.8-13.56,14.36,0,10.23,10.62,17.15,20.02,13.05,2.51-1.09,2.47-1.07,.98-3.42-.51-.8-.88-.95-1.76-.49-4.54,2.37-9.2,1.55-12.72-2.14-3.33-3.5-3.73-8.94-.94-12.98,2.85-4.13,8.14-5.78,12.55-3.97Z" style="fill:#1d2a38;"/><path d="M228.73,35.93c-1.17-.05-1.45,.3-1.44,1.44,.06,5.99,.04,11.99,.02,17.98,0,2.34-1.13,4.09-3.22,5.03-1.96,.88-3.9,.58-5.57-.86-1.49-1.29-1.48-1.3-3.26-.24-.1,.06-.19,.16-.3,.19-.88,.28-.85,.75-.37,1.42,2.17,3.06,6.48,4.5,10.12,3.34,3.78-1.21,6.32-4.62,6.32-8.51,0-3,0-5.99,0-8.99v-8.51c0-2.26,0-2.19-2.3-2.29Z" style="fill:#1d2a38;"/></g><g><path d="M66.29,4.83l53.27,53.83c4.5,4.5,4.5,11.85,0,16.35l-46.18,46.18c-4.5,4.5-11.85,4.5-16.35,0L3.76,67.36c-4.5-4.5-4.5-11.85,0-16.35L49.94,4.83c4.5-4.5,11.85-4.5,16.35,0Z" style="fill:#6ea953;"/><path d="M106.26,44.93L65.9,4.15c-3.72-3.72-9.43-4.31-13.79-1.78L18.91,35.58c-4.43,4.43-4.43,11.69,0,16.12l16.03,16.19,71.33-22.96Z" style="fill:#61a1d6;"/><path d="M92.3,154.91l-53.27-53.83c-4.5-4.5-4.5-11.85,0-16.35l46.18-46.18c4.5-4.5,11.85-4.5,16.35,0l53.27,53.83c4.5,4.5,4.5,11.85,0,16.35l-46.18,46.18c-4.5,4.5-11.85,4.5-16.35,0Z" style="fill:#c1222d;"/><path d="M52.32,114.81l40.36,40.78c3.72,3.72,9.43,4.31,13.79,1.78l33.21-33.21c4.43-4.43,4.43-11.69,0-16.12l-16.03-16.19-71.33,22.96Z" style="fill:#da9032;"/></g><g><path d="M92.87,68.53l.03-.02s-.05,0-.08,0c.02,.01,.03,.01,.05,.02Z" style="fill:#fff;"/><path d="M119.99,54.76c-2.1-3.54-4.95-7.58-9.24-11.55-.77-.72-3.01-2.49-3.25-2.71-.44-.31-2.25-1.62-2.74-1.91-1.1-.67-2.23-1.3-3.34-1.96-1-.55-15.39-8.26-34.25-3.6-8.46,2.2-15.68,6.51-21.72,12.86-2.82,2.96-5.22,6.19-7.21,9.75-1.93,3.46-3.38,7.1-4.38,10.93-.14,.66-.28,1.32-.41,1.99-.87,4.54-1.26,9.09-.84,13.72,.31,3.46,1.07,6.81,1.9,10.17,.45,1.1,.96,2.17,1.16,3.35,.26,.16,.33,.43,.44,.69,2.08,4.95,4.96,9.37,8.54,13.38,4.25,4.95,12.22,9.58,12.35,9.65,8.47,4.57,17.49,6.32,27.06,5.4,6.46-.62,12.54-2.53,18.17-5.72,8.8-4.98,15.39-12.09,19.63-21.3,.82-1.79,1.79-3.55,1.95-5.57-.71-.23-1.42-.46-2.14-.68-6.34-1.88-12.68-3.75-19.02-5.65-.57-.17-.77-.16-1,.48-1.08,2.98-2.71,5.64-4.85,7.97-1.82,1.98-3.95,3.58-6.31,4.85-2.52,1.36-5.19,2.33-8.08,2.56-.35,.26-.76,.05-1.14,.14-1.29,.18-2.58,.11-3.87,.04-.37-.16-.8,.09-1.15-.18-1.52,0-2.97-.41-4.38-.87-3.94-1.3-7.35-3.5-10.15-6.56-2.81-3.07-4.7-6.64-5.65-10.82,.53,0,42.19-3,42.55-3.03,4.49-.35,25.56-2.17,27.41-2.17,.17,0,.34-.02,.48-.06,.39-.11-.54-8.76-3.14-16.51-.33-1-2.5-5.6-3.38-7.09Zm-25.82,13.99c-.36,.19-.72,.13-1.17,.1-2.61,.22-5.21,.45-7.82,.66-7.63,.62-15.27,1.23-22.9,1.84l-5.83,.51c1.78-7.69,9.17-16,20.06-17.23,11.22-1.27,20.61,5.19,24.33,13.66-2.26,.16-4.46,.31-6.67,.46Z" style="fill:#fff;"/></g></svg>